# This file uses centimeters as units for non-parametric coordinates.

mtllib blouse-symmetric-loose-m.mtl
g default
v 0.041826 -0.239107 0.000000
v -0.137375 -0.551722 0.000000
v -0.055148 -0.590099 0.000000
v 0.095890 -0.282179 0.000000
v -0.055653 -0.240075 0.000000
v -0.213009 -0.510334 0.000000
v -0.085246 0.263267 0.000000
v 0.069628 0.292387 0.000000
v -0.033759 0.287572 0.000000
v -0.103603 0.249307 0.000000
v 0.101426 0.108789 0.000000
v 0.106234 0.158375 0.000000
v -0.141654 0.165042 0.000000
v -0.142902 0.112780 0.000000
v -0.139972 0.185842 0.000000
v 0.114944 0.176865 0.000000
v 0.123334 0.185889 0.000000
v 0.137545 0.193985 0.000000
v -0.134314 0.205029 0.000000
v 0.104140 0.221185 0.000000
v -0.116169 0.236667 0.000000
v -0.126920 0.221631 0.000000
v 0.152925 0.231979 0.000000
v 0.137986 0.292386 0.000000
v 0.158226 0.206200 0.000000
v -0.104228 -0.043007 0.000000
v -0.076468 -0.069324 0.000000
v 0.046814 -0.079676 0.000000
v -0.120916 -0.028184 0.000000
v -0.149117 0.057706 0.000000
v 0.100174 0.053075 0.000000
v 0.100350 0.105291 0.000000
v -0.144323 0.109872 0.000000
v -0.149843 0.036884 0.000000
v 0.114563 0.024636 0.000000
v 0.107070 0.034127 0.000000
v -0.146419 0.017476 0.000000
v 0.127949 0.015726 0.000000
v -0.131984 -0.014962 0.000000
v 0.089449 -0.010389 0.000000
v -0.140966 0.000559 0.000000
v 0.089447 -0.084086 0.000000
v 0.122473 -0.024973 0.000000
v 0.138031 0.012611 0.000000
v 0.051132 0.811176 0.000000
v -0.147062 0.761047 0.000000
v 0.043871 0.468853 0.000000
v 0.138960 0.513596 0.000000
v -0.224428 0.737187 0.000000
v -0.008412 0.468787 0.000000
v 0.427039 -0.590099 0.000000
v 0.509267 -0.551722 0.000000
v 0.330065 -0.239107 0.000000
v 0.276001 -0.282179 0.000000
v 0.584901 -0.510334 0.000000
v 0.426666 -0.240075 0.000000
v 0.476956 0.263267 0.000000
v 0.425469 0.287572 0.000000
v 0.322082 0.292387 0.000000
v 0.495313 0.249307 0.000000
v 0.533364 0.165042 0.000000
v 0.285476 0.158375 0.000000
v 0.290284 0.108789 0.000000
v 0.534612 0.112780 0.000000
v 0.531682 0.185842 0.000000
v 0.268375 0.185889 0.000000
v 0.276766 0.176865 0.000000
v 0.526024 0.205029 0.000000
v 0.254165 0.193985 0.000000
v 0.507879 0.236667 0.000000
v 0.287569 0.221185 0.000000
v 0.518630 0.221631 0.000000
v 0.253723 0.292386 0.000000
v 0.238785 0.231979 0.000000
v 0.233486 0.206200 0.000000
v 0.495937 -0.043007 0.000000
v 0.344896 -0.079676 0.000000
v 0.468178 -0.069324 0.000000
v 0.512625 -0.028184 0.000000
v 0.291360 0.105291 0.000000
v 0.291536 0.053075 0.000000
v 0.540826 0.057706 0.000000
v 0.536033 0.109872 0.000000
v 0.541553 0.036884 0.000000
v 0.284639 0.034127 0.000000
v 0.277147 0.024636 0.000000
v 0.263761 0.015726 0.000000
v 0.538128 0.017476 0.000000
v 0.302261 -0.010389 0.000000
v 0.523693 -0.014962 0.000000
v 0.532675 0.000559 0.000000
v 0.269237 -0.024973 0.000000
v 0.302263 -0.084086 0.000000
v 0.253678 0.012611 0.000000
v 0.328021 0.468853 0.000000
v 0.518954 0.761047 0.000000
v 0.320759 0.811176 0.000000
v 0.232932 0.513596 0.000000
v 0.381069 0.468787 0.000000
v 0.596319 0.737187 0.000000
vt 0.041826 -0.239107
vt -0.064950 -0.484257
vt 0.085434 -0.484256
vt 0.041826 -0.239107
vt 0.085434 -0.484256
vt 0.137564 -0.282179
vt -0.064950 -0.484257
vt 0.041826 -0.239107
vt -0.018632 -0.240075
vt -0.064950 -0.484257
vt -0.018632 -0.240075
vt -0.123642 -0.485197
vt -0.131223 0.386996
vt 0.048982 0.438760
vt -0.082049 0.430201
vt -0.152582 0.362181
vt 0.048982 0.438760
vt -0.131223 0.386996
vt 0.048968 0.109880
vt 0.056448 0.212106
vt -0.196857 0.212391
vt 0.048968 0.109880
vt -0.196857 0.212391
vt -0.198309 0.119491
vt -0.194900 0.249366
vt 0.069996 0.248860
vt 0.083047 0.266798
vt 0.056448 0.212106
vt 0.069996 0.248860
vt -0.194900 0.249366
vt 0.056448 0.212106
vt -0.194900 0.249366
vt -0.196857 0.212391
vt 0.083047 0.266798
vt 0.105153 0.282891
vt -0.188316 0.283472
vt 0.083047 0.266798
vt -0.188316 0.283472
vt -0.194900 0.249366
vt 0.089139 0.312192
vt 0.048982 0.438760
vt -0.167203 0.339713
vt 0.089139 0.312192
vt -0.167203 0.339713
vt -0.179713 0.312985
vt -0.167203 0.339713
vt 0.048982 0.438760
vt -0.152582 0.362181
vt -0.188316 0.283472
vt 0.105153 0.282891
vt 0.089139 0.312192
vt -0.188316 0.283472
vt 0.089139 0.312192
vt -0.179713 0.312985
vt 0.089139 0.312192
vt 0.179335 0.331379
vt 0.153071 0.438758
vt 0.089139 0.312192
vt 0.153071 0.438758
vt 0.048982 0.438760
vt 0.105153 0.282891
vt 0.185946 0.307173
vt 0.179335 0.331379
vt 0.105153 0.282891
vt 0.179335 0.331379
vt 0.089139 0.312192
vt -0.153309 -0.157438
vt -0.107551 -0.204218
vt 0.022437 -0.222621
vt -0.172727 -0.131088
vt -0.153309 -0.157438
vt 0.022437 -0.222621
vt -0.205540 0.021590
vt 0.047021 0.002794
vt 0.047295 0.105278
vt -0.205540 0.021590
vt 0.047295 0.105278
vt -0.199962 0.114321
vt -0.206385 -0.015423
vt 0.069404 -0.053738
vt 0.057748 -0.034871
vt -0.206385 -0.015423
vt 0.057748 -0.034871
vt 0.047021 0.002794
vt -0.206385 -0.015423
vt 0.047021 0.002794
vt -0.205540 0.021590
vt -0.202401 -0.049923
vt 0.090226 -0.071449
vt 0.069404 -0.053738
vt -0.202401 -0.049923
vt 0.069404 -0.053738
vt -0.206385 -0.015423
vt -0.185605 -0.107585
vt 0.022437 -0.222621
vt 0.072045 -0.099456
vt -0.185605 -0.107585
vt 0.072045 -0.099456
vt -0.196056 -0.079995
vt -0.185605 -0.107585
vt -0.172727 -0.131088
vt 0.022437 -0.222621
vt -0.202401 -0.049923
vt -0.196056 -0.079995
vt 0.072045 -0.099456
vt -0.202401 -0.049923
vt 0.072045 -0.099456
vt 0.090226 -0.071449
vt 0.126212 -0.230459
vt 0.160517 -0.125380
vt 0.072045 -0.099456
vt 0.126212 -0.230459
vt 0.072045 -0.099456
vt 0.022437 -0.222621
vt 0.160517 -0.125380
vt 0.168938 -0.101744
vt 0.090226 -0.071449
vt 0.160517 -0.125380
vt 0.090226 -0.071449
vt 0.072045 -0.099456
vt 0.083618 0.714831
vt -0.066817 0.712227
vt 0.043871 0.468853
vt 0.083618 0.714831
vt 0.043871 0.468853
vt 0.138960 0.513596
vt -0.066817 0.712227
vt -0.125540 0.712161
vt -0.016619 0.468787
vt -0.066817 0.712227
vt -0.016619 0.468787
vt 0.043871 0.468853
vt 0.286457 -0.484256
vt 0.436842 -0.484257
vt 0.330065 -0.239107
vt 0.286457 -0.484256
vt 0.330065 -0.239107
vt 0.234327 -0.282179
vt 0.436842 -0.484257
vt 0.495534 -0.485197
vt 0.390524 -0.240075
vt 0.436842 -0.484257
vt 0.390524 -0.240075
vt 0.330065 -0.239107
vt 0.522932 0.386996
vt 0.473759 0.430201
vt 0.342727 0.438760
vt 0.544292 0.362181
vt 0.522932 0.386996
vt 0.342727 0.438760
vt 0.588567 0.212391
vt 0.335262 0.212106
vt 0.342742 0.109880
vt 0.588567 0.212391
vt 0.342742 0.109880
vt 0.590019 0.119491
vt 0.586609 0.249366
vt 0.308662 0.266798
vt 0.321714 0.248860
vt 0.586609 0.249366
vt 0.321714 0.248860
vt 0.335262 0.212106
vt 0.586609 0.249366
vt 0.335262 0.212106
vt 0.588567 0.212391
vt 0.580026 0.283472
vt 0.286557 0.282891
vt 0.308662 0.266798
vt 0.580026 0.283472
vt 0.308662 0.266798
vt 0.586609 0.249366
vt 0.558913 0.339713
vt 0.342727 0.438760
vt 0.302570 0.312192
vt 0.558913 0.339713
vt 0.302570 0.312192
vt 0.571423 0.312985
vt 0.558913 0.339713
vt 0.544292 0.362181
vt 0.342727 0.438760
vt 0.580026 0.283472
vt 0.571423 0.312985
vt 0.302570 0.312192
vt 0.580026 0.283472
vt 0.302570 0.312192
vt 0.286557 0.282891
vt 0.238638 0.438758
vt 0.212374 0.331379
vt 0.302570 0.312192
vt 0.238638 0.438758
vt 0.302570 0.312192
vt 0.342727 0.438760
vt 0.212374 0.331379
vt 0.205764 0.307173
vt 0.286557 0.282891
vt 0.212374 0.331379
vt 0.286557 0.282891
vt 0.302570 0.312192
vt 0.545018 -0.157438
vt 0.369273 -0.222621
vt 0.499261 -0.204218
vt 0.564436 -0.131088
vt 0.369273 -0.222621
vt 0.545018 -0.157438
vt 0.344415 0.105278
vt 0.344689 0.002794
vt 0.597249 0.021590
vt 0.344415 0.105278
vt 0.597249 0.021590
vt 0.591672 0.114321
vt 0.598095 -0.015423
vt 0.333961 -0.034871
vt 0.322306 -0.053738
vt 0.344689 0.002794
vt 0.333961 -0.034871
vt 0.598095 -0.015423
vt 0.344689 0.002794
vt 0.598095 -0.015423
vt 0.597249 0.021590
vt 0.322306 -0.053738
vt 0.301484 -0.071449
vt 0.594110 -0.049923
vt 0.322306 -0.053738
vt 0.594110 -0.049923
vt 0.598095 -0.015423
vt 0.319665 -0.099456
vt 0.369273 -0.222621
vt 0.577314 -0.107585
vt 0.319665 -0.099456
vt 0.577314 -0.107585
vt 0.587765 -0.079995
vt 0.577314 -0.107585
vt 0.369273 -0.222621
vt 0.564436 -0.131088
vt 0.594110 -0.049923
vt 0.301484 -0.071449
vt 0.319665 -0.099456
vt 0.594110 -0.049923
vt 0.319665 -0.099456
vt 0.587765 -0.079995
vt 0.319665 -0.099456
vt 0.231193 -0.125380
vt 0.265498 -0.230459
vt 0.319665 -0.099456
vt 0.265498 -0.230459
vt 0.369273 -0.222621
vt 0.301484 -0.071449
vt 0.222771 -0.101744
vt 0.231193 -0.125380
vt 0.301484 -0.071449
vt 0.231193 -0.125380
vt 0.319665 -0.099456
vt 0.328021 0.468853
vt 0.438709 0.712227
vt 0.288273 0.714831
vt 0.328021 0.468853
vt 0.288273 0.714831
vt 0.232932 0.513596
vt 0.438709 0.712227
vt 0.328021 0.468853
vt 0.388511 0.468787
vt 0.438709 0.712227
vt 0.388511 0.468787
vt 0.497431 0.712161
vn 0.000000 0.000000 1.000000
vn 0.000000 0.000000 1.000000
vn 0.000000 0.000000 1.000000
vn 0.000000 0.000000 1.000000
vn 0.000000 0.000000 1.000000
vn 0.000000 0.000000 1.000000
vn 0.000000 0.000000 1.000000
vn 0.000000 0.000000 1.000000
vn 0.000000 0.000000 1.000000
vn 0.000000 0.000000 1.000000
vn 0.000000 0.000000 1.000000
vn 0.000000 0.000000 1.000000
vn 0.000000 0.000000 1.000000
vn 0.000000 0.000000 1.000000
vn 0.000000 0.000000 1.000000
vn 0.000000 0.000000 1.000000
vn 0.000000 0.000000 1.000000
vn 0.000000 0.000000 1.000000
vn 0.000000 0.000000 1.000000
vn 0.000000 0.000000 1.000000
vn 0.000000 0.000000 1.000000
vn 0.000000 0.000000 1.000000
vn 0.000000 0.000000 1.000000
vn 0.000000 0.000000 1.000000
vn 0.000000 0.000000 1.000000
vn 0.000000 0.000000 1.000000
vn 0.000000 0.000000 1.000000
vn 0.000000 0.000000 1.000000
vn 0.000000 0.000000 1.000000
vn 0.000000 0.000000 1.000000
vn 0.000000 0.000000 1.000000
vn 0.000000 0.000000 1.000000
vn 0.000000 0.000000 1.000000
vn 0.000000 0.000000 1.000000
vn 0.000000 0.000000 1.000000
vn 0.000000 0.000000 1.000000
vn 0.000000 0.000000 1.000000
vn 0.000000 0.000000 1.000000
vn 0.000000 0.000000 1.000000
vn 0.000000 0.000000 1.000000
vn 0.000000 0.000000 1.000000
vn 0.000000 0.000000 1.000000
vn 0.000000 0.000000 1.000000
vn 0.000000 0.000000 1.000000
vn 0.000000 0.000000 1.000000
vn 0.000000 0.000000 1.000000
vn 0.000000 0.000000 1.000000
vn 0.000000 0.000000 1.000000
vn 0.000000 0.000000 1.000000
vn 0.000000 0.000000 1.000000
vn 0.000000 0.000000 1.000000
vn 0.000000 0.000000 1.000000
vn 0.000000 0.000000 1.000000
vn 0.000000 0.000000 1.000000
vn 0.000000 0.000000 1.000000
vn 0.000000 0.000000 1.000000
vn 0.000000 0.000000 1.000000
vn 0.000000 0.000000 1.000000
vn 0.000000 0.000000 1.000000
vn 0.000000 0.000000 1.000000
vn 0.000000 0.000000 1.000000
vn 0.000000 0.000000 1.000000
vn 0.000000 0.000000 1.000000
vn 0.000000 0.000000 1.000000
vn 0.000000 0.000000 1.000000
vn 0.000000 0.000000 1.000000
vn 0.000000 0.000000 1.000000
vn 0.000000 0.000000 1.000000
vn 0.000000 0.000000 1.000000
vn 0.000000 0.000000 1.000000
vn 0.000000 0.000000 1.000000
vn 0.000000 0.000000 1.000000
vn 0.000000 0.000000 1.000000
vn 0.000000 0.000000 1.000000
vn 0.000000 0.000000 1.000000
vn 0.000000 0.000000 1.000000
vn 0.000000 0.000000 1.000000
vn 0.000000 0.000000 1.000000
vn 0.000000 0.000000 1.000000
vn 0.000000 0.000000 1.000000
vn 0.000000 0.000000 1.000000
vn 0.000000 0.000000 1.000000
vn 0.000000 0.000000 1.000000
vn 0.000000 0.000000 1.000000
vn 0.000000 0.000000 1.000000
vn 0.000000 0.000000 1.000000
vn 0.000000 0.000000 1.000000
vn 0.000000 0.000000 1.000000
vn 0.000000 0.000000 1.000000
vn 0.000000 0.000000 1.000000
vn 0.000000 0.000000 1.000000
vn 0.000000 0.000000 1.000000
vn 0.000000 0.000000 1.000000
vn 0.000000 0.000000 1.000000
vn 0.000000 0.000000 1.000000
vn 0.000000 0.000000 1.000000
vn 0.000000 0.000000 1.000000
vn 0.000000 0.000000 1.000000
vn 0.000000 0.000000 1.000000
vn 0.000000 0.000000 1.000000
vn 0.000000 0.000000 1.000000
vn 0.000000 0.000000 1.000000
vn 0.000000 0.000000 1.000000
vn 0.000000 0.000000 1.000000
vn 0.000000 0.000000 1.000000
vn 0.000000 0.000000 1.000000
vn 0.000000 0.000000 1.000000
vn 0.000000 0.000000 1.000000
vn 0.000000 0.000000 1.000000
vn 0.000000 0.000000 1.000000
vn 0.000000 0.000000 1.000000
vn 0.000000 0.000000 1.000000
vn 0.000000 0.000000 1.000000
vn 0.000000 0.000000 1.000000
vn 0.000000 0.000000 1.000000
vn 0.000000 0.000000 1.000000
vn 0.000000 0.000000 1.000000
vn 0.000000 0.000000 1.000000
vn 0.000000 0.000000 1.000000
vn 0.000000 0.000000 1.000000
vn 0.000000 0.000000 1.000000
vn 0.000000 0.000000 1.000000
vn 0.000000 0.000000 1.000000
vn 0.000000 0.000000 1.000000
vn 0.000000 0.000000 1.000000
vn 0.000000 0.000000 1.000000
vn 0.000000 0.000000 1.000000
vn 0.000000 0.000000 1.000000
vn 0.000000 0.000000 1.000000
vn 0.000000 0.000000 1.000000
vn 0.000000 0.000000 1.000000
vn 0.000000 0.000000 1.000000
vn 0.000000 0.000000 1.000000
vn 0.000000 0.000000 1.000000
vn 0.000000 0.000000 1.000000
vn 0.000000 0.000000 1.000000
vn 0.000000 0.000000 1.000000
vn 0.000000 0.000000 1.000000
vn 0.000000 0.000000 1.000000
vn 0.000000 0.000000 1.000000
vn 0.000000 0.000000 1.000000
vn 0.000000 0.000000 1.000000
vn 0.000000 0.000000 1.000000
vn 0.000000 0.000000 1.000000
vn 0.000000 0.000000 1.000000
vn 0.000000 0.000000 1.000000
vn 0.000000 0.000000 1.000000
vn 0.000000 0.000000 1.000000
vn 0.000000 0.000000 1.000000
vn 0.000000 0.000000 1.000000
vn 0.000000 0.000000 1.000000
vn 0.000000 0.000000 1.000000
vn 0.000000 0.000000 1.000000
vn 0.000000 0.000000 1.000000
vn 0.000000 0.000000 1.000000
vn 0.000000 0.000000 1.000000
vn 0.000000 0.000000 1.000000
vn 0.000000 0.000000 1.000000
vn 0.000000 0.000000 1.000000
vn 0.000000 0.000000 1.000000
vn 0.000000 0.000000 1.000000
vn 0.000000 0.000000 1.000000
vn 0.000000 0.000000 1.000000
vn 0.000000 0.000000 1.000000
vn 0.000000 0.000000 1.000000
vn 0.000000 0.000000 1.000000
vn 0.000000 0.000000 1.000000
vn 0.000000 0.000000 1.000000
vn 0.000000 0.000000 1.000000
vn 0.000000 0.000000 1.000000
vn 0.000000 0.000000 1.000000
vn 0.000000 0.000000 1.000000
vn 0.000000 0.000000 1.000000
vn 0.000000 0.000000 1.000000
vn 0.000000 0.000000 1.000000
vn 0.000000 0.000000 1.000000
vn 0.000000 0.000000 1.000000
vn 0.000000 0.000000 1.000000
vn 0.000000 0.000000 1.000000
vn 0.000000 0.000000 1.000000
vn 0.000000 0.000000 1.000000
vn 0.000000 0.000000 1.000000
vn 0.000000 0.000000 1.000000
vn 0.000000 0.000000 1.000000
vn 0.000000 0.000000 1.000000
vn 0.000000 0.000000 1.000000
vn 0.000000 0.000000 1.000000
vn 0.000000 0.000000 1.000000
vn 0.000000 0.000000 1.000000
vn 0.000000 0.000000 1.000000
vn 0.000000 0.000000 1.000000
vn 0.000000 0.000000 1.000000
vn 0.000000 0.000000 1.000000
vn 0.000000 0.000000 1.000000
vn 0.000000 0.000000 1.000000
vn 0.000000 0.000000 1.000000
vn 0.000000 0.000000 1.000000
vn 0.000000 0.000000 1.000000
vn 0.000000 0.000000 1.000000
vn 0.000000 0.000000 1.000000
vn 0.000000 0.000000 1.000000
vn 0.000000 0.000000 1.000000
vn 0.000000 0.000000 1.000000
vn 0.000000 0.000000 1.000000
vn 0.000000 0.000000 1.000000
vn 0.000000 0.000000 1.000000
vn 0.000000 0.000000 1.000000
vn 0.000000 0.000000 1.000000
vn 0.000000 0.000000 1.000000
vn 0.000000 0.000000 1.000000
vn 0.000000 0.000000 1.000000
vn 0.000000 0.000000 1.000000
vn 0.000000 0.000000 1.000000
vn 0.000000 0.000000 1.000000
vn 0.000000 0.000000 1.000000
vn 0.000000 0.000000 1.000000
vn 0.000000 0.000000 1.000000
vn 0.000000 0.000000 1.000000
vn 0.000000 0.000000 1.000000
vn 0.000000 0.000000 1.000000
vn 0.000000 0.000000 1.000000
vn 0.000000 0.000000 1.000000
vn 0.000000 0.000000 1.000000
vn 0.000000 0.000000 1.000000
vn 0.000000 0.000000 1.000000
vn 0.000000 0.000000 1.000000
vn 0.000000 0.000000 1.000000
vn 0.000000 0.000000 1.000000
vn 0.000000 0.000000 1.000000
vn 0.000000 0.000000 1.000000
vn 0.000000 0.000000 1.000000
vn 0.000000 0.000000 1.000000
vn 0.000000 0.000000 1.000000
vn 0.000000 0.000000 1.000000
vn 0.000000 0.000000 1.000000
vn 0.000000 0.000000 1.000000
vn 0.000000 0.000000 1.000000
vn 0.000000 0.000000 1.000000
vn 0.000000 0.000000 1.000000
vn 0.000000 0.000000 1.000000
vn 0.000000 0.000000 1.000000
vn 0.000000 0.000000 1.000000
vn 0.000000 0.000000 1.000000
vn 0.000000 0.000000 1.000000
vn 0.000000 0.000000 1.000000
vn 0.000000 0.000000 1.000000
vn 0.000000 0.000000 1.000000
vn 0.000000 0.000000 1.000000
vn 0.000000 0.000000 1.000000
vn 0.000000 0.000000 1.000000
vn 0.000000 0.000000 1.000000
vn 0.000000 0.000000 1.000000
vn 0.000000 0.000000 1.000000
vn 0.000000 0.000000 1.000000
vn 0.000000 0.000000 1.000000
vn 0.000000 0.000000 1.000000
vn 0.000000 0.000000 1.000000
vn 0.000000 0.000000 1.000000
vn 0.000000 0.000000 1.000000
vn 0.000000 0.000000 1.000000
vn 0.000000 0.000000 1.000000
vn 0.000000 0.000000 1.000000
vn 0.000000 0.000000 1.000000
vn 0.000000 0.000000 1.000000
s off
g blouse_symmetric_m:Mesh
usemtl initialShadingGroup
f 1/1/1 2/2/2 3/3/3
f 1/4/4 3/5/5 4/6/6
f 2/7/7 1/8/8 5/9/9
f 2/10/10 5/11/11 6/12/12
f 7/13/13 8/14/14 9/15/15
f 10/16/16 8/17/17 7/18/18
f 11/19/19 12/20/20 13/21/21
f 11/22/22 13/23/23 14/24/24
f 15/25/25 16/26/26 17/27/27
f 12/28/28 16/29/29 15/30/30
f 12/31/31 15/32/32 13/33/33
f 17/34/34 18/35/35 19/36/36
f 17/37/37 19/38/38 15/39/39
f 20/40/40 8/41/41 21/42/42
f 20/43/43 21/44/44 22/45/45
f 21/46/46 8/47/47 10/48/48
f 19/49/49 18/50/50 20/51/51
f 19/52/52 20/53/53 22/54/54
f 20/55/55 23/56/56 24/57/57
f 20/58/58 24/59/59 8/60/60
f 18/61/61 25/62/62 23/63/63
f 18/64/64 23/65/65 20/66/66
f 26/67/67 27/68/68 28/69/69
f 29/70/70 26/71/71 28/72/72
f 30/73/73 31/74/74 32/75/75
f 30/76/76 32/77/77 33/78/78
f 34/79/79 35/80/80 36/81/81
f 34/82/82 36/83/83 31/84/84
f 34/85/85 31/86/86 30/87/87
f 37/88/88 38/89/89 35/90/90
f 37/91/91 35/92/92 34/93/93
f 39/94/94 28/95/95 40/96/96
f 39/97/97 40/98/98 41/99/99
f 39/100/100 29/101/101 28/102/102
f 37/103/103 41/104/104 40/105/105
f 37/106/106 40/107/107 38/108/108
f 42/109/109 43/110/110 40/111/111
f 42/112/112 40/113/113 28/114/114
f 43/115/115 44/116/116 38/117/117
f 43/118/118 38/119/119 40/120/120
f 45/121/121 46/122/122 47/123/123
f 45/124/124 47/125/125 48/126/126
f 46/127/127 49/128/128 50/129/129
f 46/130/130 50/131/131 47/132/132
f 51/133/133 52/134/134 53/135/135
f 51/136/136 53/137/137 54/138/138
f 52/139/139 55/140/140 56/141/141
f 52/142/142 56/143/143 53/144/144
f 57/145/145 58/146/146 59/147/147
f 60/148/148 57/149/149 59/150/150
f 61/151/151 62/152/152 63/153/153
f 61/154/154 63/155/155 64/156/156
f 65/157/157 66/158/158 67/159/159
f 65/160/160 67/161/161 62/162/162
f 65/163/163 62/164/164 61/165/165
f 68/166/166 69/167/167 66/168/168
f 68/169/169 66/170/170 65/171/171
f 70/172/172 59/173/173 71/174/174
f 70/175/175 71/176/176 72/177/177
f 70/178/178 60/179/179 59/180/180
f 68/181/181 72/182/182 71/183/183
f 68/184/184 71/185/185 69/186/186
f 73/187/187 74/188/188 71/189/189
f 73/190/190 71/191/191 59/192/192
f 74/193/193 75/194/194 69/195/195
f 74/196/196 69/197/197 71/198/198
f 76/199/199 77/200/200 78/201/201
f 79/202/202 77/203/203 76/204/204
f 80/205/205 81/206/206 82/207/207
f 80/208/208 82/209/209 83/210/210
f 84/211/211 85/212/212 86/213/213
f 81/214/214 85/215/215 84/216/216
f 81/217/217 84/218/218 82/219/219
f 86/220/220 87/221/221 88/222/222
f 86/223/223 88/224/224 84/225/225
f 89/226/226 77/227/227 90/228/228
f 89/229/229 90/230/230 91/231/231
f 90/232/232 77/233/233 79/234/234
f 88/235/235 87/236/236 89/237/237
f 88/238/238 89/239/239 91/240/240
f 89/241/241 92/242/242 93/243/243
f 89/244/244 93/245/245 77/246/246
f 87/247/247 94/248/248 92/249/249
f 87/250/250 92/251/251 89/252/252
f 95/253/253 96/254/254 97/255/255
f 95/256/256 97/257/257 98/258/258
f 96/259/259 95/260/260 99/261/261
f 96/262/262 99/263/263 100/264/264
