# This file uses centimeters as units for non-parametric coordinates.

mtllib blouse-symmetric-w.mtl
g default
v -0.084210 0.183823 -0.476322
v -0.002985 -0.066644 -0.462730
v -0.209313 -0.066643 -0.473340
v -0.210004 0.161193 -0.478704
v -0.009014 0.208496 -0.349755
v 0.043318 -0.053235 -0.349088
v 0.033647 0.274017 -0.221910
v -0.093560 0.211482 -0.236371
v -0.009014 0.208496 -0.349755
v 0.049745 0.298830 -0.224983
v -0.104553 0.430438 -0.380040
v -0.110440 0.445926 -0.243202
v 0.082451 0.447867 -0.243442
v 0.083492 0.430887 -0.371642
v 0.081210 0.411157 -0.238895
v -0.120509 0.409333 -0.238669
v -0.130327 0.391417 -0.236450
v -0.147052 0.375252 -0.234448
v 0.076426 0.377252 -0.234696
v -0.134660 0.346315 -0.230864
v 0.060728 0.321255 -0.227761
v 0.070074 0.347890 -0.231059
v -0.210547 0.326482 -0.228408
v -0.210205 0.188437 -0.237651
v -0.210352 0.350445 -0.231376
v 0.046797 0.259760 -0.479272
v -0.009014 0.208496 -0.349755
v -0.084210 0.183823 -0.476322
v 0.061761 0.285945 -0.479762
v 0.087777 0.438353 -0.481176
v -0.104672 0.421738 -0.476564
v -0.104553 0.430438 -0.380040
v 0.083492 0.430887 -0.371642
v 0.088171 0.401330 -0.480991
v -0.122098 0.365394 -0.475857
v -0.113095 0.384162 -0.476168
v 0.084904 0.366861 -0.480733
v -0.138072 0.347862 -0.475390
v 0.071726 0.309338 -0.480120
v -0.124417 0.319695 -0.475562
v 0.079870 0.336842 -0.480456
v -0.210004 0.161193 -0.478704
v -0.211100 0.294533 -0.473842
v -0.210432 0.318244 -0.473819
v -0.210308 -0.041004 -0.241337
v 0.000339 -0.038616 -0.238733
v -0.093560 0.211482 -0.236371
v -0.210205 0.188437 -0.237651
v 0.043318 -0.053235 -0.349088
v -0.009014 0.208496 -0.349755
v -0.209313 -0.066643 -0.473340
v -0.418790 -0.066644 -0.462730
v -0.337566 0.183823 -0.476322
v -0.210004 0.161193 -0.478704
v -0.465092 -0.053235 -0.349088
v -0.412761 0.208496 -0.349755
v -0.455855 0.274017 -0.221910
v -0.412761 0.208496 -0.349755
v -0.328648 0.211482 -0.236371
v -0.471952 0.298830 -0.224983
v -0.504658 0.447867 -0.243442
v -0.311768 0.445926 -0.243202
v -0.317654 0.430438 -0.380040
v -0.505700 0.430887 -0.371642
v -0.503417 0.411157 -0.238895
v -0.291881 0.391417 -0.236450
v -0.301699 0.409333 -0.238669
v -0.498634 0.377252 -0.234696
v -0.275156 0.375252 -0.234448
v -0.482936 0.321255 -0.227761
v -0.287547 0.346315 -0.230864
v -0.492281 0.347890 -0.231059
v -0.210205 0.188437 -0.237651
v -0.210547 0.326482 -0.228408
v -0.210352 0.350445 -0.231376
v -0.469004 0.259760 -0.479272
v -0.337566 0.183823 -0.476322
v -0.412761 0.208496 -0.349755
v -0.483968 0.285945 -0.479762
v -0.317654 0.430438 -0.380040
v -0.317535 0.421738 -0.476564
v -0.509984 0.438353 -0.481176
v -0.505700 0.430887 -0.371642
v -0.510378 0.401330 -0.480991
v -0.309113 0.384162 -0.476168
v -0.300110 0.365394 -0.475857
v -0.284135 0.347862 -0.475390
v -0.507112 0.366861 -0.480733
v -0.297791 0.319695 -0.475562
v -0.493933 0.309338 -0.480120
v -0.502078 0.336842 -0.480456
v -0.211100 0.294533 -0.473842
v -0.210004 0.161193 -0.478704
v -0.210432 0.318244 -0.473819
v -0.328648 0.211482 -0.236371
v -0.422115 -0.038616 -0.238733
v -0.210308 -0.041004 -0.241337
v -0.210205 0.188437 -0.237651
v -0.412761 0.208496 -0.349755
v -0.465092 -0.053235 -0.349088
vt -0.013330 0.145960
vt 0.093332 -0.104507
vt -0.177611 -0.104506
vt -0.013330 0.145960
vt -0.177611 -0.104506
vt -0.178518 0.123330
vt 0.093332 -0.104507
vt -0.013330 0.145960
vt 0.085415 0.170633
vt 0.093332 -0.104507
vt 0.085415 0.170633
vt 0.154135 -0.091098
vt 0.141436 0.236154
vt -0.025608 0.173619
vt 0.085415 0.170633
vt 0.162575 0.260967
vt -0.025608 0.173619
vt 0.141436 0.236154
vt -0.040044 0.392575
vt -0.047775 0.408063
vt 0.205523 0.410004
vt -0.040044 0.392575
vt 0.205523 0.410004
vt 0.206890 0.393024
vt 0.203893 0.373294
vt -0.060997 0.371470
vt -0.073889 0.353554
vt -0.047775 0.408063
vt -0.060997 0.371470
vt 0.203893 0.373294
vt -0.047775 0.408063
vt 0.203893 0.373294
vt 0.205523 0.410004
vt -0.073889 0.353554
vt -0.095852 0.337389
vt 0.197611 0.339389
vt -0.073889 0.353554
vt 0.197611 0.339389
vt 0.203893 0.373294
vt -0.079579 0.308452
vt -0.025608 0.173619
vt 0.176997 0.283392
vt -0.079579 0.308452
vt 0.176997 0.283392
vt 0.189270 0.310027
vt 0.176997 0.283392
vt -0.025608 0.173619
vt 0.162575 0.260967
vt 0.197611 0.339389
vt -0.095852 0.337389
vt -0.079579 0.308452
vt 0.197611 0.339389
vt -0.079579 0.308452
vt 0.189270 0.310027
vt -0.079579 0.308452
vt -0.179231 0.288619
vt -0.178782 0.150574
vt -0.079579 0.308452
vt -0.178782 0.150574
vt -0.025608 0.173619
vt -0.095852 0.337389
vt -0.178975 0.312582
vt -0.179231 0.288619
vt -0.095852 0.337389
vt -0.179231 0.288619
vt -0.079579 0.308452
vt 0.158704 0.221897
vt 0.085415 0.170633
vt -0.013330 0.145960
vt 0.178354 0.248082
vt 0.158704 0.221897
vt -0.013330 0.145960
vt 0.212517 0.400490
vt -0.040200 0.383875
vt -0.040044 0.392575
vt 0.212517 0.400490
vt -0.040044 0.392575
vt 0.206890 0.393024
vt 0.213034 0.363467
vt -0.063083 0.327531
vt -0.051261 0.346299
vt 0.213034 0.363467
vt -0.051261 0.346299
vt -0.040200 0.383875
vt 0.213034 0.363467
vt -0.040200 0.383875
vt 0.212517 0.400490
vt 0.208745 0.328998
vt -0.084060 0.309999
vt -0.063083 0.327531
vt 0.208745 0.328998
vt -0.063083 0.327531
vt 0.213034 0.363467
vt 0.191440 0.271475
vt -0.013330 0.145960
vt -0.066128 0.281832
vt 0.191440 0.271475
vt -0.066128 0.281832
vt 0.202134 0.298979
vt 0.191440 0.271475
vt 0.178354 0.248082
vt -0.013330 0.145960
vt 0.208745 0.328998
vt 0.202134 0.298979
vt -0.066128 0.281832
vt 0.208745 0.328998
vt -0.066128 0.281832
vt -0.084060 0.309999
vt -0.178518 0.123330
vt -0.179958 0.256670
vt -0.066128 0.281832
vt -0.178518 0.123330
vt -0.066128 0.281832
vt -0.013330 0.145960
vt -0.179958 0.256670
vt -0.179081 0.280381
vt -0.084060 0.309999
vt -0.179958 0.256670
vt -0.084060 0.309999
vt -0.066128 0.281832
vt -0.178918 -0.078867
vt 0.097697 -0.076479
vt -0.025608 0.173619
vt -0.178918 -0.078867
vt -0.025608 0.173619
vt -0.178782 0.150574
vt 0.097697 -0.076479
vt 0.154135 -0.091098
vt 0.085415 0.170633
vt 0.097697 -0.076479
vt 0.085415 0.170633
vt -0.025608 0.173619
vt -0.177611 -0.104506
vt -0.452689 -0.104507
vt -0.346028 0.145960
vt -0.177611 -0.104506
vt -0.346028 0.145960
vt -0.178518 0.123330
vt -0.452689 -0.104507
vt -0.513492 -0.091098
vt -0.444772 0.170633
vt -0.452689 -0.104507
vt -0.444772 0.170633
vt -0.346028 0.145960
vt -0.501361 0.236154
vt -0.444772 0.170633
vt -0.334318 0.173619
vt -0.522500 0.260967
vt -0.501361 0.236154
vt -0.334318 0.173619
vt -0.565448 0.410004
vt -0.312151 0.408063
vt -0.319881 0.392575
vt -0.565448 0.410004
vt -0.319881 0.392575
vt -0.566816 0.393024
vt -0.563818 0.373294
vt -0.286036 0.353554
vt -0.298929 0.371470
vt -0.563818 0.373294
vt -0.298929 0.371470
vt -0.312151 0.408063
vt -0.563818 0.373294
vt -0.312151 0.408063
vt -0.565448 0.410004
vt -0.557537 0.339389
vt -0.264074 0.337389
vt -0.286036 0.353554
vt -0.557537 0.339389
vt -0.286036 0.353554
vt -0.563818 0.373294
vt -0.536923 0.283392
vt -0.334318 0.173619
vt -0.280346 0.308452
vt -0.536923 0.283392
vt -0.280346 0.308452
vt -0.549195 0.310027
vt -0.536923 0.283392
vt -0.522500 0.260967
vt -0.334318 0.173619
vt -0.557537 0.339389
vt -0.549195 0.310027
vt -0.280346 0.308452
vt -0.557537 0.339389
vt -0.280346 0.308452
vt -0.264074 0.337389
vt -0.178782 0.150574
vt -0.179231 0.288619
vt -0.280346 0.308452
vt -0.178782 0.150574
vt -0.280346 0.308452
vt -0.334318 0.173619
vt -0.179231 0.288619
vt -0.178975 0.312582
vt -0.264074 0.337389
vt -0.179231 0.288619
vt -0.264074 0.337389
vt -0.280346 0.308452
vt -0.518629 0.221897
vt -0.346028 0.145960
vt -0.444772 0.170633
vt -0.538279 0.248082
vt -0.346028 0.145960
vt -0.518629 0.221897
vt -0.319881 0.392575
vt -0.319725 0.383875
vt -0.572442 0.400490
vt -0.319881 0.392575
vt -0.572442 0.400490
vt -0.566816 0.393024
vt -0.572960 0.363467
vt -0.308665 0.346299
vt -0.296843 0.327531
vt -0.319725 0.383875
vt -0.308665 0.346299
vt -0.572960 0.363467
vt -0.319725 0.383875
vt -0.572960 0.363467
vt -0.572442 0.400490
vt -0.296843 0.327531
vt -0.275865 0.309999
vt -0.568671 0.328998
vt -0.296843 0.327531
vt -0.568671 0.328998
vt -0.572960 0.363467
vt -0.293798 0.281832
vt -0.346028 0.145960
vt -0.551365 0.271475
vt -0.293798 0.281832
vt -0.551365 0.271475
vt -0.562060 0.298979
vt -0.551365 0.271475
vt -0.346028 0.145960
vt -0.538279 0.248082
vt -0.568671 0.328998
vt -0.275865 0.309999
vt -0.293798 0.281832
vt -0.568671 0.328998
vt -0.293798 0.281832
vt -0.562060 0.298979
vt -0.293798 0.281832
vt -0.179958 0.256670
vt -0.178518 0.123330
vt -0.293798 0.281832
vt -0.178518 0.123330
vt -0.346028 0.145960
vt -0.275865 0.309999
vt -0.179081 0.280381
vt -0.179958 0.256670
vt -0.275865 0.309999
vt -0.179958 0.256670
vt -0.293798 0.281832
vt -0.334318 0.173619
vt -0.457055 -0.076479
vt -0.178918 -0.078867
vt -0.334318 0.173619
vt -0.178918 -0.078867
vt -0.178782 0.150574
vt -0.457055 -0.076479
vt -0.334318 0.173619
vt -0.444772 0.170633
vt -0.457055 -0.076479
vt -0.444772 0.170633
vt -0.513492 -0.091098
vn 0.051319 -0.037514 -0.997977
vn 0.051319 -0.037514 -0.997977
vn 0.051319 -0.037514 -0.997977
vn 0.023146 -0.023460 -0.999457
vn 0.023146 -0.023460 -0.999457
vn 0.023146 -0.023460 -0.999457
vn 0.814702 0.235446 -0.529930
vn 0.814702 0.235446 -0.529930
vn 0.814702 0.235446 -0.529930
vn 0.903427 0.179643 -0.389292
vn 0.903427 0.179643 -0.389292
vn 0.903427 0.179643 -0.389292
vn 0.389971 -0.865786 0.313587
vn 0.389971 -0.865786 0.313587
vn 0.389971 -0.865786 0.313587
vn -0.239023 0.270563 0.932558
vn -0.239023 0.270563 0.932558
vn -0.239023 0.270563 0.932558
vn -0.010138 0.993556 -0.112891
vn -0.010138 0.993556 -0.112891
vn -0.010138 0.993556 -0.112891
vn 0.003496 0.991340 -0.131274
vn 0.003496 0.991340 -0.131274
vn 0.003496 0.991340 -0.131274
vn 0.000001 0.122917 0.992417
vn 0.000001 0.122917 0.992417
vn 0.000001 0.122917 0.992417
vn 0.000000 0.122936 0.992415
vn 0.000000 0.122936 0.992415
vn 0.000000 0.122936 0.992415
vn -0.000002 0.122924 0.992416
vn -0.000002 0.122924 0.992416
vn -0.000002 0.122924 0.992416
vn 0.000001 0.122907 0.992418
vn 0.000001 0.122907 0.992418
vn 0.000001 0.122907 0.992418
vn 0.000001 0.122906 0.992418
vn 0.000001 0.122906 0.992418
vn 0.000001 0.122906 0.992418
vn -0.021949 -0.047478 0.998631
vn -0.021949 -0.047478 0.998631
vn -0.021949 -0.047478 0.998631
vn -0.000000 0.122884 0.992421
vn -0.000000 0.122884 0.992421
vn -0.000000 0.122884 0.992421
vn -0.210387 0.221008 0.952309
vn -0.210387 0.221008 0.952309
vn -0.210387 0.221008 0.952309
vn 0.000001 0.122917 0.992417
vn 0.000001 0.122917 0.992417
vn 0.000001 0.122917 0.992417
vn -0.000000 0.122928 0.992416
vn -0.000000 0.122928 0.992416
vn -0.000000 0.122928 0.992416
vn 0.049658 -0.066602 0.996543
vn 0.049658 -0.066602 0.996543
vn 0.049658 -0.066602 0.996543
vn -0.002737 -0.041642 0.999129
vn -0.002737 -0.041642 0.999129
vn -0.002737 -0.041642 0.999129
vn -0.000009 0.122919 0.992417
vn -0.000009 0.122919 0.992417
vn -0.000009 0.122919 0.992417
vn -0.000005 0.122914 0.992417
vn -0.000005 0.122914 0.992417
vn -0.000005 0.122914 0.992417
vn 0.495304 -0.859426 -0.126734
vn 0.495304 -0.859426 -0.126734
vn 0.495304 -0.859426 -0.126734
vn -0.017450 -0.008737 -0.999810
vn -0.017450 -0.008737 -0.999810
vn -0.017450 -0.008737 -0.999810
vn -0.087795 0.992126 -0.089316
vn -0.087795 0.992126 -0.089316
vn -0.087795 0.992126 -0.089316
vn -0.005410 0.997685 0.067792
vn -0.005410 0.997685 0.067792
vn -0.005410 0.997685 0.067792
vn -0.023505 -0.005292 -0.999710
vn -0.023505 -0.005292 -0.999710
vn -0.023505 -0.005292 -0.999710
vn -0.023507 -0.005266 -0.999710
vn -0.023507 -0.005266 -0.999710
vn -0.023507 -0.005266 -0.999710
vn -0.023504 -0.005245 -0.999710
vn -0.023504 -0.005245 -0.999710
vn -0.023504 -0.005245 -0.999710
vn -0.023511 -0.005205 -0.999710
vn -0.023511 -0.005205 -0.999710
vn -0.023511 -0.005205 -0.999710
vn -0.023511 -0.005255 -0.999710
vn -0.023511 -0.005255 -0.999710
vn -0.023511 -0.005255 -0.999710
vn -0.023301 -0.001303 -0.999728
vn -0.023301 -0.001303 -0.999728
vn -0.023301 -0.001303 -0.999728
vn -0.023509 -0.005252 -0.999710
vn -0.023509 -0.005252 -0.999710
vn -0.023509 -0.005252 -0.999710
vn -0.018313 -0.007499 -0.999804
vn -0.018313 -0.007499 -0.999804
vn -0.018313 -0.007499 -0.999804
vn -0.023506 -0.005283 -0.999710
vn -0.023506 -0.005283 -0.999710
vn -0.023506 -0.005283 -0.999710
vn -0.023505 -0.005291 -0.999710
vn -0.023505 -0.005291 -0.999710
vn -0.023505 -0.005291 -0.999710
vn -0.030320 0.036173 -0.998886
vn -0.030320 0.036173 -0.998886
vn -0.030320 0.036173 -0.998886
vn 0.017020 0.010629 -0.999799
vn 0.017020 0.010629 -0.999799
vn 0.017020 0.010629 -0.999799
vn -0.022360 0.001600 -0.999749
vn -0.022360 0.001600 -0.999749
vn -0.022360 0.001600 -0.999749
vn -0.018945 -0.003080 -0.999816
vn -0.018945 -0.003080 -0.999816
vn -0.018945 -0.003080 -0.999816
vn -0.012201 -0.014023 0.999827
vn -0.012201 -0.014023 0.999827
vn -0.012201 -0.014023 0.999827
vn -0.007799 -0.016059 0.999841
vn -0.007799 -0.016059 0.999841
vn -0.007799 -0.016059 0.999841
vn 0.923708 0.185544 0.335166
vn 0.923708 0.185544 0.335166
vn 0.923708 0.185544 0.335166
vn 0.772109 0.284521 0.568239
vn 0.772109 0.284521 0.568239
vn 0.772109 0.284521 0.568239
vn -0.050549 -0.037766 -0.998007
vn -0.050549 -0.037766 -0.998007
vn -0.050549 -0.037766 -0.998007
vn -0.022850 -0.023600 -0.999460
vn -0.022850 -0.023600 -0.999460
vn -0.022850 -0.023600 -0.999460
vn -0.903427 0.179643 -0.389292
vn -0.903427 0.179643 -0.389292
vn -0.903427 0.179643 -0.389292
vn -0.814705 0.235445 -0.529926
vn -0.814705 0.235445 -0.529926
vn -0.814705 0.235445 -0.529926
vn -0.390273 -0.866104 0.312330
vn -0.390273 -0.866104 0.312330
vn -0.390273 -0.866104 0.312330
vn 0.239026 0.270564 0.932557
vn 0.239026 0.270564 0.932557
vn 0.239026 0.270564 0.932557
vn 0.010138 0.993556 -0.112891
vn 0.010138 0.993556 -0.112891
vn 0.010138 0.993556 -0.112891
vn -0.003496 0.991340 -0.131274
vn -0.003496 0.991340 -0.131274
vn -0.003496 0.991340 -0.131274
vn -0.000000 0.122917 0.992417
vn -0.000000 0.122917 0.992417
vn -0.000000 0.122917 0.992417
vn -0.000000 0.122936 0.992415
vn -0.000000 0.122936 0.992415
vn -0.000000 0.122936 0.992415
vn 0.000002 0.122924 0.992416
vn 0.000002 0.122924 0.992416
vn 0.000002 0.122924 0.992416
vn -0.000001 0.122907 0.992418
vn -0.000001 0.122907 0.992418
vn -0.000001 0.122907 0.992418
vn -0.000001 0.122907 0.992418
vn -0.000001 0.122907 0.992418
vn -0.000001 0.122907 0.992418
vn 0.021949 -0.047478 0.998631
vn 0.021949 -0.047478 0.998631
vn 0.021949 -0.047478 0.998631
vn 0.000000 0.122884 0.992421
vn 0.000000 0.122884 0.992421
vn 0.000000 0.122884 0.992421
vn 0.210393 0.221018 0.952305
vn 0.210393 0.221018 0.952305
vn 0.210393 0.221018 0.952305
vn 0.000001 0.122929 0.992416
vn 0.000001 0.122929 0.992416
vn 0.000001 0.122929 0.992416
vn -0.000001 0.122917 0.992417
vn -0.000001 0.122917 0.992417
vn -0.000001 0.122917 0.992417
vn -0.049003 -0.066847 0.996559
vn -0.049003 -0.066847 0.996559
vn -0.049003 -0.066847 0.996559
vn 0.002698 -0.041630 0.999129
vn 0.002698 -0.041630 0.999129
vn 0.002698 -0.041630 0.999129
vn 0.000008 0.122918 0.992417
vn 0.000008 0.122918 0.992417
vn 0.000008 0.122918 0.992417
vn 0.000004 0.122914 0.992417
vn 0.000004 0.122914 0.992417
vn 0.000004 0.122914 0.992417
vn -0.494151 -0.860213 -0.125892
vn -0.494151 -0.860213 -0.125892
vn -0.494151 -0.860213 -0.125892
vn 0.017365 -0.008786 -0.999811
vn 0.017365 -0.008786 -0.999811
vn 0.017365 -0.008786 -0.999811
vn 0.087795 0.992126 -0.089315
vn 0.087795 0.992126 -0.089315
vn 0.087795 0.992126 -0.089315
vn 0.005410 0.997685 0.067792
vn 0.005410 0.997685 0.067792
vn 0.005410 0.997685 0.067792
vn 0.023505 -0.005292 -0.999710
vn 0.023505 -0.005292 -0.999710
vn 0.023505 -0.005292 -0.999710
vn 0.023507 -0.005266 -0.999710
vn 0.023507 -0.005266 -0.999710
vn 0.023507 -0.005266 -0.999710
vn 0.023505 -0.005245 -0.999710
vn 0.023505 -0.005245 -0.999710
vn 0.023505 -0.005245 -0.999710
vn 0.023511 -0.005204 -0.999710
vn 0.023511 -0.005204 -0.999710
vn 0.023511 -0.005204 -0.999710
vn 0.023511 -0.005255 -0.999710
vn 0.023511 -0.005255 -0.999710
vn 0.023511 -0.005255 -0.999710
vn 0.023297 -0.001228 -0.999728
vn 0.023297 -0.001228 -0.999728
vn 0.023297 -0.001228 -0.999728
vn 0.023509 -0.005251 -0.999710
vn 0.023509 -0.005251 -0.999710
vn 0.023509 -0.005251 -0.999710
vn 0.018237 -0.007532 -0.999805
vn 0.018237 -0.007532 -0.999805
vn 0.018237 -0.007532 -0.999805
vn 0.023504 -0.005291 -0.999710
vn 0.023504 -0.005291 -0.999710
vn 0.023504 -0.005291 -0.999710
vn 0.023506 -0.005283 -0.999710
vn 0.023506 -0.005283 -0.999710
vn 0.023506 -0.005283 -0.999710
vn 0.030462 0.036672 -0.998863
vn 0.030462 0.036672 -0.998863
vn 0.030462 0.036672 -0.998863
vn -0.016805 0.010512 -0.999804
vn -0.016805 0.010512 -0.999804
vn -0.016805 0.010512 -0.999804
vn 0.021457 0.000366 -0.999770
vn 0.021457 0.000366 -0.999770
vn 0.021457 0.000366 -0.999770
vn 0.018943 -0.003079 -0.999816
vn 0.018943 -0.003079 -0.999816
vn 0.018943 -0.003079 -0.999816
vn 0.012134 -0.013978 0.999829
vn 0.012134 -0.013978 0.999829
vn 0.012134 -0.013978 0.999829
vn 0.007680 -0.016066 0.999842
vn 0.007680 -0.016066 0.999842
vn 0.007680 -0.016066 0.999842
vn -0.773677 0.283788 0.566471
vn -0.773677 0.283788 0.566471
vn -0.773677 0.283788 0.566471
vn -0.923710 0.185544 0.335160
vn -0.923710 0.185544 0.335160
vn -0.923710 0.185544 0.335160
s off
g blouse_symmetric_w:Mesh
usemtl initialShadingGroup
f 1/1/1 2/2/2 3/3/3
f 1/4/4 3/5/5 4/6/6
f 2/7/7 1/8/8 5/9/9
f 2/10/10 5/11/11 6/12/12
f 7/13/13 8/14/14 9/15/15
f 10/16/16 8/17/17 7/18/18
f 11/19/19 12/20/20 13/21/21
f 11/22/22 13/23/23 14/24/24
f 15/25/25 16/26/26 17/27/27
f 12/28/28 16/29/29 15/30/30
f 12/31/31 15/32/32 13/33/33
f 17/34/34 18/35/35 19/36/36
f 17/37/37 19/38/38 15/39/39
f 20/40/40 8/41/41 21/42/42
f 20/43/43 21/44/44 22/45/45
f 21/46/46 8/47/47 10/48/48
f 19/49/49 18/50/50 20/51/51
f 19/52/52 20/53/53 22/54/54
f 20/55/55 23/56/56 24/57/57
f 20/58/58 24/59/59 8/60/60
f 18/61/61 25/62/62 23/63/63
f 18/64/64 23/65/65 20/66/66
f 26/67/67 27/68/68 28/69/69
f 29/70/70 26/71/71 28/72/72
f 30/73/73 31/74/74 32/75/75
f 30/76/76 32/77/77 33/78/78
f 34/79/79 35/80/80 36/81/81
f 34/82/82 36/83/83 31/84/84
f 34/85/85 31/86/86 30/87/87
f 37/88/88 38/89/89 35/90/90
f 37/91/91 35/92/92 34/93/93
f 39/94/94 28/95/95 40/96/96
f 39/97/97 40/98/98 41/99/99
f 39/100/100 29/101/101 28/102/102
f 37/103/103 41/104/104 40/105/105
f 37/106/106 40/107/107 38/108/108
f 42/109/109 43/110/110 40/111/111
f 42/112/112 40/113/113 28/114/114
f 43/115/115 44/116/116 38/117/117
f 43/118/118 38/119/119 40/120/120
f 45/121/121 46/122/122 47/123/123
f 45/124/124 47/125/125 48/126/126
f 46/127/127 49/128/128 50/129/129
f 46/130/130 50/131/131 47/132/132
f 51/133/133 52/134/134 53/135/135
f 51/136/136 53/137/137 54/138/138
f 52/139/139 55/140/140 56/141/141
f 52/142/142 56/143/143 53/144/144
f 57/145/145 58/146/146 59/147/147
f 60/148/148 57/149/149 59/150/150
f 61/151/151 62/152/152 63/153/153
f 61/154/154 63/155/155 64/156/156
f 65/157/157 66/158/158 67/159/159
f 65/160/160 67/161/161 62/162/162
f 65/163/163 62/164/164 61/165/165
f 68/166/166 69/167/167 66/168/168
f 68/169/169 66/170/170 65/171/171
f 70/172/172 59/173/173 71/174/174
f 70/175/175 71/176/176 72/177/177
f 70/178/178 60/179/179 59/180/180
f 68/181/181 72/182/182 71/183/183
f 68/184/184 71/185/185 69/186/186
f 73/187/187 74/188/188 71/189/189
f 73/190/190 71/191/191 59/192/192
f 74/193/193 75/194/194 69/195/195
f 74/196/196 69/197/197 71/198/198
f 76/199/199 77/200/200 78/201/201
f 79/202/202 77/203/203 76/204/204
f 80/205/205 81/206/206 82/207/207
f 80/208/208 82/209/209 83/210/210
f 84/211/211 85/212/212 86/213/213
f 81/214/214 85/215/215 84/216/216
f 81/217/217 84/218/218 82/219/219
f 86/220/220 87/221/221 88/222/222
f 86/223/223 88/224/224 84/225/225
f 89/226/226 77/227/227 90/228/228
f 89/229/229 90/230/230 91/231/231
f 90/232/232 77/233/233 79/234/234
f 88/235/235 87/236/236 89/237/237
f 88/238/238 89/239/239 91/240/240
f 89/241/241 92/242/242 93/243/243
f 89/244/244 93/245/245 77/246/246
f 87/247/247 94/248/248 92/249/249
f 87/250/250 92/251/251 89/252/252
f 95/253/253 96/254/254 97/255/255
f 95/256/256 97/257/257 98/258/258
f 96/259/259 95/260/260 99/261/261
f 96/262/262 99/263/263 100/264/264
